<?xml version="1.0" encoding="utf-8"?>
<!-- Generator: Adobe Illustrator 24.0.2, SVG Export Plug-In . SVG Version: 6.00 Build 0)  -->
<svg version="1.1" id="Capa_1" xmlns="http://www.w3.org/2000/svg" xmlns:xlink="http://www.w3.org/1999/xlink" x="0px" y="0px"
	 viewBox="0 0 1920 1920" style="enable-background:new 0 0 1920 1920;" xml:space="preserve">
<style type="text/css">
	.st0{fill:#181818;}
</style>
<g>
	<path class="st0" d="M1853.04,1023.23c88.98-98.77,88.47-262.18-4.77-356.56c-29.99-30.35-42.4-53.54-37.65-99.22
		c14.66-140.7-117.44-273.41-262.85-273.71c-17.64-0.04-31.87,3.11-42.83-19.87C1445,148.15,1289.08,89.66,1158.51,142.83
		c-20.75,8.45-33.38,5.96-51.6-6.39c-99.56-67.49-204.24-72.2-309.1-13.7c-24.1,13.45-42.55,17.65-69.29,10.39
		C616.4,102.72,483.35,150.23,429.2,244.13c-20.54,35.61-38.61,50.05-82.84,51.77C200.4,301.57,79.48,461.5,111.4,600.04
		c4.26,18.48,2.26,27.9-13.23,40.58c-119.8,98.1-132.5,270.16-28.79,386.94c11.54,12.99,13.57,22.05,8.13,38.06
		c-41.57,122.23-5.72,237.21,98.77,320.21c10.2,8.1,22.01,11.86,15,30.9c-41.97,114.01-35.3,233.13-34.97,351.44
		c0.16,59.34,10.38,69.36,71.83,69.43c242.19,0.25,484.38,0.1,726.58,0.12c216.61,0.02,433.22,0.05,649.84-0.02
		c34.6-0.01,69.21-0.06,103.79-0.91c29.45-0.73,49.92-13.82,50.14-45.05c0.89-121.25,8.57-243.35-31.16-360.92
		c-8.24-24.4-2.7-35.98,17.18-50.63c100.48-74.02,138.95-196.8,97.68-311.7C1834.98,1048.38,1839.55,1038.2,1853.04,1023.23z
		 M1668.79,1722.32c-0.88,34.71-25.13,22.7-41.16,22.75c-223.97,0.68-447.94,0.46-671.91,0.46c-220.96,0-441.94-0.98-662.89,0.96
		c-36.92,0.32-43.76-11.06-43.18-44.27c1.41-81.41-0.1-162.6,25.35-241.67c6.44-20.01,10.95-28.53,36.21-23.76
		c114.78,21.68,217.12-5.22,303.99-83.86c13.07-11.84,21.63-25.39,43.55-7.39c166.87,137.05,360.52,154.75,565.1,118.25
		c117.21-20.92,228.65-59.76,334.12-113.77c27.66-14.16,36.84-7.49,48.37,17.46C1658.63,1480.63,1671.9,1599.79,1668.79,1722.32z
		 M1749.81,982.54c-38.88,19.67-48.16,47.45-18.05,77.69c64.56,64.86,29.79,186.05-22.22,233.41
		c-18.32,16.69-31.18,21.99-41.17-6.46c-2.88-8.2-8.84-15.38-13.5-22.96c-26.31-42.78-42.22-46.28-87.58-22.12
		c-167.13,88.98-342.23,150.74-535.5,146.27c-132.89-3.07-249.2-47.22-345.09-140.02c-46.97-45.46-61.21-44.31-103.75,4.91
		c-87.3,101.01-206.12,126.03-329.42,71.54c-89.29-39.46-135.43-192.91-67.31-261.39c33.85-34.03,24.61-61.32-20-82.53
		c-54.89-26.11-78.73-80.36-69.63-158.45c7.75-66.48,45.22-112.72,102.06-125.93c52.1-12.11,62.31-46.4,24.57-85.42
		c-10.68-11.05-21.06-22.44-23.28-37.09c-9.72-64.16,21.45-111.85,68.85-150.03c42.38-34.14,89.7-55.01,145.42-29.04
		c56.76,26.46,81.77,11.31,80.21-50.28c-4.28-29.26,9.45-52.87,30.4-73.82c55.02-55.03,146.06-71.79,215.81-35.48
		c32.58,16.96,53.74,11.88,78.97-13.14c70.76-70.16,197.27-61.93,260.1,14.54c30.66,37.33,43.99,38.63,85.19,8.31
		c71.28-52.45,201.16-28.13,248.37,46.24c12.7,20,13.06,41.36,12.16,64.02c-1.89,47.84,29.9,67.97,72.65,44.06
		c54.8-30.66,101.78-13.08,146.1,18.91c49.66,35.84,81.45,82.98,77.49,146.61c-1.22,19.56-13.4,34.82-27.51,49.35
		c-34.32,35.35-24.08,69.52,22.85,81.5c64.75,16.53,99.26,58.82,106.92,130.99C1832.17,904.33,1809.27,952.45,1749.81,982.54z"/>
	<path class="st0" d="M1244.14,1682.81c-41.62,0.52-78.34-33.79-79.06-73.86c-0.72-40.03,35.2-76.57,76.15-77.46
		c41.79-0.91,76.86,32.84,77.53,74.6C1319.45,1648.85,1286.93,1682.28,1244.14,1682.81z"/>
	<path class="st0" d="M677.06,1682.76c-43.18,0.14-75.57-32.53-75.26-75.89c0.31-41.75,35.1-75.88,76.86-75.41
		c40.82,0.47,77.94,37.35,77.16,76.66C755.03,1648.34,718.85,1682.63,677.06,1682.76z"/>
</g>
</svg>
